<?xml version="1.0" encoding="UTF-8"?>
<svg version="1.1" xmlns="http://www.w3.org/2000/svg" width="615" height="523">
<path d="M0 0 C202.95 0 405.9 0 615 0 C615 172.59 615 345.18 615 523 C412.05 523 209.1 523 0 523 C0 350.41 0 177.82 0 0 Z " fill="#FBFDFD" transform="translate(0,0)"/>
<path d="M0 0 C202.95 0 405.9 0 615 0 C615 172.59 615 345.18 615 523 C412.05 523 209.1 523 0 523 C0 350.41 0 177.82 0 0 Z M268 15 C267.14100098 15.14421387 266.28200195 15.28842773 265.39697266 15.43701172 C229.00351514 21.76997996 192.64423732 38.79286328 164 62 C163.1440625 62.66644531 162.288125 63.33289062 161.40625 64.01953125 C133.97449529 85.76323094 104.79557615 115.95241369 94 150 C93.34 150 92.68 150 92 150 C88.30711397 157.80561292 85.60639757 165.86624073 82.9375 174.0625 C82.2851041 176.05500465 81.63134478 178.04704845 80.97601318 180.03858948 C80.35282021 181.93320553 79.73253131 183.82877603 79.11230469 185.72436523 C78.25966762 188.23530279 77.3442596 190.65790221 76.32421875 193.1015625 C74.20835588 198.59716563 73.68086917 204.51346545 72.875 210.3125 C72.54126954 212.6422443 72.20543203 214.97168804 71.8671875 217.30078125 C71.72394043 218.32341064 71.58069336 219.34604004 71.43310547 220.3996582 C71 223 71 223 70 226 C68.76016536 235.38229477 68.79828799 244.86612015 68.8125 254.3125 C68.81310425 255.05678253 68.8137085 255.80106506 68.81433105 256.56790161 C68.85579466 275.47302893 70.26011591 293.59618169 74.56689453 312.03759766 C75.14432042 314.65391633 75.54071733 317.28850329 75.9375 319.9375 C76.80573755 324.8955934 78.62267424 329.19388144 80.65625 333.78125 C82.09340003 337.22372565 83.20512874 340.68845461 84.3125 344.25 C86.74653961 351.84933197 90.13756281 358.78013177 93.85693359 365.82421875 C95.07582171 368.1443236 96.26750705 370.47721492 97.45703125 372.8125 C104.91961976 387.37031022 113.66793601 400.34514272 124 413 C124.68787598 413.84667236 124.68787598 413.84667236 125.38964844 414.71044922 C137.66083184 429.71385447 151.23119779 443.66544514 167 455 C168.09574341 455.79156494 168.09574341 455.79156494 169.21362305 456.59912109 C195.90603 475.60320001 224.88903198 490.07005463 257 497 C257.93505371 497.20367187 258.87010742 497.40734375 259.83349609 497.6171875 C323.92247153 511.41503562 390.22545417 501.59281765 446 466 C455.36235106 459.84841841 464.45684165 453.25192528 473 446 C473.72316406 445.38769531 474.44632812 444.77539062 475.19140625 444.14453125 C488.35602714 432.62827236 500.86124199 420.27994086 511 406 C511.82075424 404.894225 512.64373041 403.79009627 513.46875 402.6875 C526.9288866 386.00899643 526.9288866 386.00899643 534 367 C534.66 367 535.32 367 536 367 C536.24234375 366.39414062 536.4846875 365.78828125 536.734375 365.1640625 C537.23710938 363.90722656 537.23710938 363.90722656 537.75 362.625 C538.11480469 361.71234375 538.47960937 360.7996875 538.85546875 359.859375 C539.58542468 358.03573083 540.31702413 356.21274306 541.05078125 354.390625 C541.38464844 353.56046875 541.71851563 352.7303125 542.0625 351.875 C542.36285156 351.12992187 542.66320312 350.38484375 542.97265625 349.6171875 C549.79672335 332.23268197 556.01772563 314.79869911 557 296 C557.66 296 558.32 296 559 296 C560.98015364 275.18468815 561.64147415 254.86615737 560.125 234 C560.04668945 232.9076001 559.96837891 231.8152002 559.88769531 230.68969727 C559.43810055 225.17354845 558.65733535 220.27032643 557 215 C556.71748787 213.10873827 556.46771376 211.21231177 556.25 209.3125 C555.13297907 201.6086017 552.82710927 194.37527271 550.51953125 186.96484375 C548.80394719 181.44324016 547.3575524 175.87019841 545.95703125 170.26171875 C544.90208116 166.6662766 543.53623756 163.41434206 542 160 C541.34 160 540.68 160 540 160 C539.82597656 158.91332031 539.82597656 158.91332031 539.6484375 157.8046875 C538.98216754 154.92286923 538.00081481 152.734879 536.625 150.125 C535.18879317 147.38475261 533.88431436 144.70953234 532.73828125 141.83203125 C530.58531271 136.74794589 527.53806775 132.19558529 524.5625 127.5625 C523.62978271 126.10759155 523.62978271 126.10759155 522.67822266 124.62329102 C513.87378995 111.02857396 504.29482214 98.60402589 493 87 C492.46729492 86.44683105 491.93458984 85.89366211 491.38574219 85.32373047 C484.31741568 78.0013138 477.04408363 71.25902013 469 65 C468.0409375 64.22398438 467.081875 63.44796875 466.09375 62.6484375 C456.88517131 55.32343172 447.09952014 49.02553364 437 43 C436.32018066 42.59394531 435.64036133 42.18789063 434.93994141 41.76953125 C411.1944525 27.84423078 384.26808254 19.12100669 357.27148438 14.40234375 C354.48612134 13.90897764 351.71305819 13.35798542 348.9375 12.8125 C338.10445479 10.90355293 327.0990907 10.72545756 316.125 10.6875 C315.02599365 10.68357239 315.02599365 10.68357239 313.90478516 10.67956543 C298.35541223 10.67368697 283.33271227 12.34290386 268 15 Z " fill="#FEFEFE" transform="translate(0,0)"/>
<path d="M0 0 C0.97839844 0.26039062 1.95679688 0.52078125 2.96484375 0.7890625 C26.17208366 7.18076049 48.21067182 19.08742454 67 34 C68.1213145 34.84821213 69.24511533 35.69314519 70.37109375 36.53515625 C75.69328755 40.52887146 80.82413527 44.52334911 85.40625 49.375 C87.11533064 51.11759202 88.93055109 52.63414534 90.8125 54.1875 C99.57804631 61.78768466 106.2556776 71.51561817 112.87109375 80.96875 C114.11735518 82.74324334 115.38624439 84.50291318 116.70703125 86.22265625 C118.1904919 88.26185442 119.03231394 90.39857992 119.97265625 92.7265625 C121.91101327 97.01600654 124.28864282 101.09488738 126.57421875 105.20703125 C128 108 128 108 128 110 C128.66 110 129.32 110 130 110 C136.24116209 122.89966633 140.2942784 136.17962766 144 150 C144.51240234 151.89492188 144.51240234 151.89492188 145.03515625 153.828125 C148.88825456 169.24051826 149.40697534 184.94494284 149.375 200.75 C149.37512085 201.67276733 149.3752417 202.59553467 149.37536621 203.54626465 C149.35016145 217.06832343 148.72917553 229.92387806 145 243 C144.64921753 244.30845391 144.29894192 245.61704382 143.94921875 246.92578125 C143.30379889 249.24580398 142.6343137 251.55935768 141.93359375 253.86328125 C141.00782515 256.97370879 140.24071093 260.09096798 139.5 263.25 C137.49659319 271.3605663 134.40663055 278.4696394 130.23828125 285.68359375 C128.12542827 289.63602851 126.56685407 293.80713352 125 298 C124.34 298 123.68 298 123 298 C122.75121094 298.68191406 122.50242187 299.36382812 122.24609375 300.06640625 C115.89031215 315.02939051 104.92048414 328.00912271 93.97265625 339.81640625 C92.57945877 341.3585793 91.24539194 342.95516355 89.95703125 344.5859375 C88.26955568 346.66749419 86.65856038 348.33719425 84.625 350.0625 C83.944375 350.64257812 83.26375 351.22265625 82.5625 351.8203125 C81.716875 352.53960937 80.87125 353.25890625 80 354 C78.81148738 355.03790408 77.624073 356.07706652 76.4375 357.1171875 C75.16684125 358.22415877 73.89600695 359.33092856 72.625 360.4375 C72.0057666 360.98220947 71.3865332 361.52691895 70.74853516 362.08813477 C66.2267454 366 66.2267454 366 64 366 C64.00785522 364.19982422 64.00785522 364.19982422 64.01586914 362.36328125 C64.03405843 357.88298294 64.04548267 353.40268785 64.05493164 348.92236328 C64.05994013 346.98843841 64.06674882 345.05451729 64.07543945 343.12060547 C64.08765831 340.3303942 64.09326329 337.54023328 64.09765625 334.75 C64.10281754 333.89446533 64.10797882 333.03893066 64.11329651 332.1574707 C64.11364459 328.37741597 64.02115673 324.70387305 63.50878906 320.95605469 C62.94779779 316.5941053 62.80263875 312.34481402 62.76171875 307.953125 C62.753647 307.10184021 62.74557526 306.25055542 62.73725891 305.37347412 C62.723498 303.57501203 62.71274053 301.7765247 62.70483398 299.97802734 C62.69341399 298.1807461 62.67312445 296.38349601 62.64331055 294.58642578 C62.35314599 277.0241752 64.78552065 260.56322268 70.8125 244 C71.15724365 243.03433105 71.5019873 242.06866211 71.85717773 241.07373047 C74.51794594 233.84127317 77.55151219 227.33014702 82 221 C82.52980469 220.23300781 83.05960937 219.46601563 83.60546875 218.67578125 C90.56001973 209.2103235 101.26470381 195.80301487 113.29296875 193.3203125 C114.18628906 193.21460938 115.07960938 193.10890625 116 193 C116 192.34 116 191.68 116 191 C117.65385233 189.65080468 119.321702 188.31866272 121 187 C123.72691007 182.90963489 123.48976567 179.79659398 123 175 C121.67828559 168.76906065 119.18670589 165.59893878 114 162 C109.13422635 159.18712882 104.21862448 159.21258651 98.8125 160.53515625 C94.51740981 162.02379546 91.49786265 164.06935832 88 167 C87.22398437 167.29777344 86.44796875 167.59554687 85.6484375 167.90234375 C77.3803604 171.32908367 66.00249008 180.99501984 62 189 C58.65316039 187.8843868 58.42316411 187.52575811 56.73046875 184.6484375 C56.31603516 183.96136719 55.90160156 183.27429688 55.47460938 182.56640625 C55.04986328 181.84324219 54.62511719 181.12007812 54.1875 180.375 C51.20933429 175.32930896 48.20626619 170.84239078 44.14233398 166.59692383 C43 165 43 165 42.875 161.3125 C43.60026975 157.93222492 44.75387054 154.70454132 45.875 151.4375 C53.9029554 127.73452218 54.54170896 100.32233386 43.34765625 77.5234375 C36.29887566 63.63127296 36.29887566 63.63127296 24 55 C18.07463996 54.23189777 13.85792067 55.74021881 9 59 C4.882796 63.22555147 2.95263344 67.3341266 2.5 73.1875 C2.62839134 79.13300659 5.72363467 83.23577936 9 88 C9.92572521 89.38984219 10.84315128 90.78526825 11.75 92.1875 C12.13671875 92.75855469 12.5234375 93.32960938 12.921875 93.91796875 C16.42808474 100.68901871 16.3054941 107.34391935 16.25 114.8125 C16.25773437 115.84181641 16.26546875 116.87113281 16.2734375 117.93164062 C16.25677927 124.5158043 15.55919964 130.60248668 14 137 C9.47767277 137 6.55082109 135.61803172 2.5625 133.75 C-12.71845017 126.84426959 -31.43345595 120.44418798 -48.30859375 124.8671875 C-52.8581704 126.78210365 -55.12064531 130.57751855 -57 135 C-58.02923807 141.87964396 -57.04693805 147.14116095 -53.58203125 153.125 C-49.19314822 158.32663914 -43.86823854 158.67631324 -37.5 159.4375 C-14.08705245 162.67079686 6.10059129 172.95162184 20.83984375 191.890625 C28.64628921 203.12738917 38.2227789 217.96492907 38 232 C37.1665365 235.09391755 36.16180665 238.0700566 35.05859375 241.078125 C33.75415354 244.67857253 32.86026057 248.27220421 32 252 C28.69291925 250.45463516 25.75273101 248.57205999 22.75 246.5 C21.85796875 245.8915625 20.9659375 245.283125 20.046875 244.65625 C19.37140625 244.1096875 18.6959375 243.563125 18 243 C18 242.34 18 241.68 18 241 C17.26523437 240.88527344 16.53046875 240.77054688 15.7734375 240.65234375 C12.95510962 239.98944128 11.08463517 239.05870407 8.625 237.5625 C2.18652836 233.88033275 -3.6222017 232.29735254 -11 233 C-15.84519135 235.42259567 -18.32123742 238.33696883 -21 243 C-22.66881717 248.0064515 -23.09634876 253.32964015 -21.05859375 258.29296875 C-16.1470577 266.49939105 -9.8228803 269.0950937 -1 272 C-1 272.66 -1 273.32 -1 274 C-0.34 274.185625 0.32 274.37125 1 274.5625 C11.74296264 279.7101696 18.47054715 290.38067836 23 301 C24.32725427 305.16258398 25.34259681 309.36663878 26.3125 313.625 C26.57611328 314.70523437 26.83972656 315.78546875 27.11132812 316.8984375 C28.48314321 322.74201345 29.31236575 327.9996719 29 334 C25.9168649 332.80100302 22.93720508 331.52299523 20 330 C20 329.34 20 328.68 20 328 C18.783125 327.608125 17.56625 327.21625 16.3125 326.8125 C13.52479421 325.8977163 10.81440981 324.92260814 8.10546875 323.79296875 C-6.61904865 317.66238352 -25.52405822 313.53458852 -41 319 C-45.95408609 324.21482746 -46.34400274 327.87617356 -46.28515625 334.87890625 C-45.79896107 340.20041237 -43.87718607 344.05808337 -40.1875 347.875 C-34.05780714 351.02741347 -27.48167694 351.52083196 -20.734375 352.42578125 C-15.0791451 353.29536158 -9.54889148 354.61738584 -4 356 C-4 356.66 -4 357.32 -4 358 C-3.28199219 358.103125 -2.56398438 358.20625 -1.82421875 358.3125 C9.8941297 361.16509935 22.21886017 373.31561988 29 383 C29.36353679 384.32541687 29.70114055 385.65851876 30 387 C14.6677526 393.65112562 -0.14709324 399.37608722 -16.5625 402.75 C-17.57908691 402.96100342 -18.59567383 403.17200684 -19.64306641 403.3894043 C-32.90411479 405.97767715 -46.18419596 406.16514541 -59.64453125 406.13037109 C-62.15630925 406.1249322 -64.66791434 406.13039309 -67.1796875 406.13671875 C-68.78906289 406.13605916 -70.39843818 406.13478048 -72.0078125 406.1328125 C-72.75257843 406.13483673 -73.49734436 406.13686096 -74.26467896 406.13894653 C-77.64863992 406.12360477 -80.76542955 406.05994547 -84 405 C-86.52089616 397.19433359 -86.44100804 389.31065544 -86.4375 381.1875 C-86.43860275 380.08343307 -86.43860275 380.08343307 -86.43972778 378.95706177 C-86.40844626 367.03945133 -85.36358867 356.17399945 -81 345 C-80.72704102 344.29649414 -80.45408203 343.59298828 -80.17285156 342.86816406 C-77.39524263 335.89073407 -74.15529158 329.27993361 -70.5625 322.6875 C-67.7217874 317.13485376 -66.94489658 312.16829693 -68 306 C-69.96257241 301.07116518 -73.76613578 298.26786888 -78.3125 295.6875 C-83.49305151 294.36224264 -88.1880737 294.37279474 -93.25 296.125 C-99.07251494 300.09489655 -102.17932771 305.73945198 -105.3125 311.875 C-105.67150391 312.56335938 -106.03050781 313.25171875 -106.40039062 313.9609375 C-107.27346324 315.63723692 -108.1376755 317.31814626 -109 319 C-113.05584628 317.64805124 -114.59908401 315.19644127 -117.28125 311.96875 C-118.98341056 309.87853806 -118.98341056 309.87853806 -121.4375 308.1875 C-124.72030221 303.59157691 -123.35590536 297.49824831 -122.59765625 292.17578125 C-120.00348843 279.74751321 -113.54994013 267.35919373 -105 258 C-104.24976563 257.16984375 -103.49953125 256.3396875 -102.7265625 255.484375 C-96.30661198 248.72013692 -89.37891954 243.93533162 -81.22265625 239.484375 C-75.53015349 236.30794174 -72.65772333 234.0087658 -70 228 C-69.67 227.34 -69.34 226.68 -69 226 C-68.22588477 219.17255752 -68.99153586 213.66628573 -73 208 C-75.19954903 205.28319439 -76.29690661 204.134867 -79.76953125 203.46875 C-86.55221832 203.53840532 -90.41541628 204.16744254 -96 208 C-97.11375 208.45375 -98.2275 208.9075 -99.375 209.375 C-103.25019832 211.11215787 -106.39059255 213.27172119 -109.7890625 215.79296875 C-112.44851855 217.2448626 -114.01351451 217.44920691 -117 217 C-119.1875 214.125 -119.1875 214.125 -121 211 C-121.66 210.34 -122.32 209.68 -123 209 C-123 208.01 -123 207.02 -123 206 C-121.35232591 204.64326656 -119.68127111 203.31486996 -118 202 C-116.15317399 199.88263744 -114.40189244 197.78053155 -112.6875 195.5625 C-112.20966064 194.94560303 -111.73182129 194.32870605 -111.23950195 193.69311523 C-103.19892562 183.15138523 -97.48997124 172.39768177 -93 160 C-92.42958984 158.50533203 -92.42958984 158.50533203 -91.84765625 156.98046875 C-83.7404612 134.61684768 -82.31512803 106.9123846 -89.91796875 84.265625 C-91.49949853 80.9541186 -93.87053377 79.78826642 -97 78 C-103.23697801 75.92100733 -108.14452443 76.96197413 -113.9140625 79.71875 C-117.65485606 82.0164659 -120.03375337 85.06750675 -122 89 C-122.03859865 92.08205499 -122.01772666 95.14223901 -121.95703125 98.22265625 C-121.93459432 100.14386932 -121.9131444 102.06509412 -121.89257812 103.98632812 C-121.85589705 107.00073533 -121.81345944 110.01453175 -121.75317383 113.02856445 C-121.45365768 128.7485845 -122.00287866 144.20944414 -129.6875 158.375 C-130.0278125 159.02654053 -130.368125 159.67808105 -130.71875 160.34936523 C-134.07019263 166.53506195 -138.19124137 171.86839185 -143 177 C-143.64710938 177.75796875 -144.29421875 178.5159375 -144.9609375 179.296875 C-147.66295815 182.14226817 -149.49419316 183.95104962 -153.5234375 184.08203125 C-156.43967091 183.59320703 -159.16866379 182.85090689 -162 182 C-164.08214627 181.49507953 -166.1654899 180.99507115 -168.25 180.5 C-171.27063551 179.73232468 -174.21379128 178.92776965 -177.16796875 177.9296875 C-182.18109123 176.71345595 -186.92270779 176.63187598 -192.0625 176.625 C-193.02994141 176.60050781 -193.99738281 176.57601562 -194.99414062 176.55078125 C-201.02548475 176.52601187 -204.36802894 177.06916466 -209 181 C-209.5775 181.433125 -210.155 181.86625 -210.75 182.3125 C-214.83390377 187.82577009 -214.6681744 195.45999 -214 202 C-212.56221573 205.28636404 -210.75709885 207.70241762 -208 210 C-205.13407868 210.95530711 -203.16126448 211.16254635 -200.17578125 211.24609375 C-198.75555664 211.29540039 -198.75555664 211.29540039 -197.30664062 211.34570312 C-195.33017667 211.40629921 -193.35361045 211.46365733 -191.37695312 211.51757812 C-185.62258708 211.72378597 -180.53018715 212.3796486 -175 214 C-175 214.66 -175 215.32 -175 216 C-174.05125 216.020625 -173.1025 216.04125 -172.125 216.0625 C-166.48934166 216.85126354 -162.38071277 220.61457355 -158 224 C-157.41863281 224.41507813 -156.83726562 224.83015625 -156.23828125 225.2578125 C-150.25457273 229.7495202 -145.75156073 237.12109818 -143 244 C-142.40493394 249.35559452 -144.17254823 252.92736041 -146.6875 257.5 C-150.54258966 264.81302976 -153.4453757 272.13961753 -156 280 C-159.399021 279.39946626 -162.4215501 278.52303221 -165.625 277.25 C-184.52683058 269.87365276 -184.52683058 269.87365276 -204.07421875 270.734375 C-209.30814481 273.41168728 -212.76746914 277.6457099 -215 283 C-215.61681798 287.66184538 -216.12133745 292.74007375 -213.984375 297.046875 C-211.57491877 299.97886391 -208.77854024 302.70188278 -204.94921875 303.34375 C-204.20285156 303.3953125 -203.45648438 303.446875 -202.6875 303.5 C-198.84269153 303.7683985 -195.63677677 304.72689998 -192 306 C-188.74219562 306.97655059 -185.48163288 307.94290081 -182.21875 308.90234375 C-159.45094864 316.66660611 -140.84504716 334.90434966 -130 356 C-124.22939938 368.80963039 -121.78180444 381.97002524 -122 396 C-163.66910368 388.89731187 -203.57112794 352.33012771 -227.1875 319.25 C-231.34591565 313.15438896 -235.20067537 306.887255 -239 300.5625 C-239.57645264 299.6147168 -240.15290527 298.66693359 -240.74682617 297.69042969 C-245.7169215 289.29887573 -245.7169215 289.29887573 -246 284 C-246.66 284 -247.32 284 -248 284 C-253.859375 266.421875 -253.859375 266.421875 -254.9284668 263.18701172 C-255.62392012 261.11855703 -256.34038529 259.05700439 -257.08129883 257.00439453 C-259.73475851 249.53315242 -261.1379091 242.22257416 -262.1875 234.375 C-262.35185547 233.22515625 -262.51621094 232.0753125 -262.68554688 230.890625 C-263.14889992 227.59650375 -263.58178787 224.300126 -264 221 C-264.10747559 220.1948999 -264.21495117 219.3897998 -264.32568359 218.56030273 C-265.22754527 210.96410159 -265.22133119 203.32796932 -265.24023438 195.6887207 C-265.24990986 193.33443441 -265.28101056 190.9810347 -265.3125 188.62695312 C-265.41618159 174.11686157 -262.50506532 161.05094407 -258.4375 147.125 C-255.96500067 138.64397925 -255.96500067 138.64397925 -253.93359375 130.05078125 C-253.23211037 126.76111727 -252.26105514 124.02719864 -250.625 121.0625 C-248.03740522 116.17140838 -245.968 111.1673743 -244 106 C-243.34 106 -242.68 106 -242 106 C-241.74347656 104.98292969 -241.48695313 103.96585937 -241.22265625 102.91796875 C-238.04423219 91.84770961 -230.05372341 81.86546744 -223 73 C-222.2678125 72.07445312 -221.535625 71.14890625 -220.78125 70.1953125 C-213.1829651 60.75096542 -205.31477684 51.77595606 -196 44 C-195.09121094 43.19175781 -194.18242187 42.38351563 -193.24609375 41.55078125 C-142.1668629 -3.61038348 -65.24442965 -20.83155481 0 0 Z " fill="#1689A9" transform="translate(373,56)"/>
<path d="M0 0 C1.14166626 0.00040787 1.14166626 0.00040787 2.30639648 0.00082397 C13.18288623 0.01873368 23.75479373 0.37778105 34.5 2.1875 C35.94496784 2.39821058 37.3902999 2.60643463 38.8359375 2.8125 C90.25809595 10.4112309 136.17059336 35.63047433 173.5 71.1875 C174.04978516 71.70860352 174.59957031 72.22970703 175.16601562 72.76660156 C187.30560277 84.34271786 197.26952923 97.18759405 206.5 111.1875 C206.99209961 111.93257813 207.48419922 112.67765625 207.99121094 113.4453125 C209.6113251 115.91367995 211.21442476 118.39231498 212.8125 120.875 C213.31644287 121.64674561 213.82038574 122.41849121 214.33959961 123.21362305 C217.36700533 127.97502155 219.68349249 132.70260743 221.65405273 137.99169922 C222.55318962 140.43790409 222.55318962 140.43790409 224.25 143.625 C225.5 146.1875 225.5 146.1875 225.5 149.1875 C226.16 149.1875 226.82 149.1875 227.5 149.1875 C230.21018798 155.40579933 232.16980569 161.52515034 233.71875 168.125 C234.4968937 171.1753233 235.45755649 174.09311545 236.5 177.0625 C239.80941432 186.73811591 241.5327804 196.77100651 243.0703125 206.859375 C243.3911815 209.20107037 243.3911815 209.20107037 244.5 211.1875 C247.75798031 235.8458867 246.84673379 260.5187093 244.5 285.1875 C243.84 285.1875 243.18 285.1875 242.5 285.1875 C242.46261719 285.90292969 242.42523437 286.61835938 242.38671875 287.35546875 C241.56006001 299.88502183 238.26983321 311.21355832 234.5 323.125 C234.15573975 324.21578857 233.81147949 325.30657715 233.45678711 326.43041992 C231.79774234 331.57286263 230.10214539 336.42950741 227.5 341.1875 C225.30573165 346.12460379 223.36682745 351.12039691 221.5 356.1875 C220.84 356.1875 220.18 356.1875 219.5 356.1875 C219.12875 357.44046875 219.12875 357.44046875 218.75 358.71875 C217.34034093 362.63055391 215.54805775 366.08044657 213.5 369.6875 C213.10554688 370.38456055 212.71109375 371.08162109 212.3046875 371.79980469 C208.51895099 378.36234321 204.24690206 384.49221048 199.71435547 390.55566406 C198.54502206 392.1269999 197.39895065 393.71556502 196.25390625 395.3046875 C190.82825973 402.75165332 184.87507082 409.55443511 178.5 416.1875 C177.88092773 416.83912109 177.26185547 417.49074219 176.62402344 418.16210938 C166.65138381 428.61518273 156.31504977 437.86906631 144.5 446.1875 C143.77167969 446.70151367 143.04335938 447.21552734 142.29296875 447.74511719 C106.62059064 472.68766878 67.51519443 486.51220285 24.50585938 491.81152344 C22.77591313 492.02790723 21.04702249 492.25432942 19.32226562 492.50878906 C-18.59713221 498.0362248 -62.87447192 488.92249983 -97.5 473.1875 C-98.47163086 472.76573486 -98.47163086 472.76573486 -99.46289062 472.33544922 C-125.43458384 461.04520679 -149.22541624 444.92184217 -169.5 425.1875 C-170.05316895 424.65479492 -170.60633789 424.12208984 -171.17626953 423.57324219 C-178.49831307 416.50527587 -185.24355509 409.23310812 -191.5 401.1875 C-192.29921875 400.19363281 -193.0984375 399.19976562 -193.921875 398.17578125 C-205.36868565 383.82649021 -213.93679574 368.04803518 -222.2175293 351.71191406 C-223.01308679 350.14593947 -223.81757583 348.58442671 -224.63598633 347.03027344 C-227.09876193 342.29699003 -228.84625152 337.52421482 -230.4375 332.4375 C-232.11043767 327.20510914 -233.87285746 322.17931946 -236.1875 317.1875 C-238.94456749 310.85154682 -239.85551665 304.37280746 -240.82421875 297.58203125 C-241.25164143 294.59637765 -241.81889366 291.69298273 -242.51171875 288.7578125 C-245.87643298 274.02509157 -245.68872647 258.53961061 -245.6875 243.5 C-245.68885956 242.41696091 -245.68885956 242.41696091 -245.69024658 241.31204224 C-245.6886596 230.15348279 -245.50575439 219.08172541 -243.07421875 208.1484375 C-242.63379731 205.8774208 -242.30249985 203.58501909 -242.01953125 201.2890625 C-240.19659924 186.60315798 -235.48171621 173.07291758 -230.5 159.1875 C-230.13793457 158.17260498 -229.77586914 157.15770996 -229.40283203 156.11206055 C-227.33117626 150.35053955 -225.07855783 144.74237193 -222.5 139.1875 C-221.84 139.1875 -221.18 139.1875 -220.5 139.1875 C-220.12875 137.9809375 -220.12875 137.9809375 -219.75 136.75 C-214.47739302 121.72307011 -205.31823441 108.61234532 -195.5 96.1875 C-194.78199219 95.27613281 -194.06398437 94.36476563 -193.32421875 93.42578125 C-162.07254159 54.51383509 -119.65299591 24.26613016 -71.5 10.1875 C-70.82710937 9.98318359 -70.15421875 9.77886719 -69.4609375 9.56835938 C-55.06046446 5.23512613 -40.38831586 3.11677134 -25.5 1.1875 C-24.76620117 1.08074951 -24.03240234 0.97399902 -23.27636719 0.86401367 C-15.56448778 -0.16748235 -7.76578112 -0.01037478 0 0 Z M-48.5 12.1875 C-50.22513926 12.5656573 -51.95039979 12.94326179 -53.67578125 13.3203125 C-103.38861575 24.61458215 -153.09899683 53.46710648 -184.5 94.1875 C-184.995 95.6725 -184.995 95.6725 -185.5 97.1875 C-187.14831452 98.87231893 -188.81762821 100.53668786 -190.5 102.1875 C-203.79878942 118.42300593 -214.55006177 137.393683 -221.5 157.1875 C-221.89574219 158.24710938 -222.29148437 159.30671875 -222.69921875 160.3984375 C-224.02135879 163.97697426 -225.28069067 167.57296066 -226.5 171.1875 C-226.7386377 171.89165039 -226.97727539 172.59580078 -227.22314453 173.32128906 C-235.41051151 197.8887238 -238.73732641 222.77379814 -238.8125 248.5625 C-238.81545074 249.45389679 -238.81840149 250.34529358 -238.82144165 251.26370239 C-238.83094695 263.88546285 -238.15093326 275.74300714 -235.01708984 288.02294922 C-234.13666711 291.70842041 -233.59605224 295.44767886 -233 299.1875 C-230.74011662 312.53527645 -226.04379144 324.96404114 -220.5 337.25 C-219.81205736 338.78235344 -219.12455113 340.31490288 -218.4375 341.84765625 C-218.10878906 342.58040771 -217.78007812 343.31315918 -217.44140625 344.06811523 C-216.56950434 346.03102511 -215.71707293 348.00070608 -214.875 349.9765625 C-208.00643798 366.01621585 -198.47873136 380.67935504 -187.5 394.1875 C-186.77296875 395.10660156 -186.0459375 396.02570313 -185.296875 396.97265625 C-179.77479231 403.87525961 -173.87115934 410.38480053 -167.80273438 416.80566406 C-166.75025378 417.9220509 -165.70923224 419.04923409 -164.671875 420.1796875 C-158.93506786 426.23520615 -152.13727625 431.17204159 -145.5 436.1875 C-144.94425293 436.6093457 -144.38850586 437.03119141 -143.81591797 437.46582031 C-112.35107784 461.1656311 -76.34083828 476.67794293 -37.5 483.1875 C-36.7565332 483.31737305 -36.01306641 483.44724609 -35.24707031 483.58105469 C22.89843365 493.31286196 87.12531228 477.28329836 135.28564453 443.95166016 C138.77055344 441.46361402 142.14498845 438.84684004 145.5 436.1875 C146.3353125 435.54425781 147.170625 434.90101563 148.03125 434.23828125 C154.85475339 428.91551674 161.2214528 423.13256371 167.5 417.1875 C168.43070312 416.3109375 169.36140625 415.434375 170.3203125 414.53125 C176.91555948 408.14269167 182.61993922 401.33241393 188.125 394.01123047 C189.48606071 392.20598836 190.8668607 390.41726214 192.25 388.62890625 C199.0958537 379.66224691 204.82099573 370.21287285 210.29248047 360.35595703 C211.35685062 358.44456689 212.44094893 356.54673482 213.53515625 354.65234375 C218.14907344 346.46897853 221.51212875 338.06004149 224.5 329.1875 C224.81614258 328.25776367 225.13228516 327.32802734 225.45800781 326.37011719 C232.49301421 305.4134874 238.29531315 283.43013768 238.5 261.1875 C238.51369629 260.1056543 238.52739258 259.02380859 238.54150391 257.90917969 C238.9747229 236.50982818 238.9747229 236.50982818 237.5 215.1875 C237.17 214.8575 236.84 214.5275 236.5 214.1875 C235.8376167 210.516004 235.25811638 206.83969902 234.69335938 203.15234375 C233.93542611 198.36911727 232.88553014 193.83811141 231.5 189.1875 C231.2085532 187.67048204 230.93570531 186.14968975 230.6875 184.625 C229.62321086 179.05663922 227.70495524 173.88059706 225.71875 168.58203125 C224.5 165.1875 224.5 165.1875 223.53125 161.69921875 C221.43335853 154.55526257 218.00801311 148.21859499 214.5 141.6875 C212.1671042 137.34419694 209.86868474 133.06045631 207.94921875 128.515625 C206.38338395 124.91969171 204.46344283 121.70080743 202.3125 118.4375 C201.91522705 117.82970703 201.5179541 117.22191406 201.10864258 116.59570312 C191.09937452 101.39740405 179.61689581 88.13843621 166.8125 75.25 C165.93376221 74.36199707 165.05502441 73.47399414 164.1496582 72.55908203 C158.88247314 67.31713195 153.4680696 62.60806466 147.5 58.1875 C146.18743665 57.17586344 144.87493546 56.16414623 143.5625 55.15234375 C115.67155617 34.1602321 83.57826 19.77998407 49.5 12.4375 C48.58798828 12.23858154 47.67597656 12.03966309 46.73632812 11.8347168 C30.4060882 8.51425367 13.93265398 7.77760737 -2.6875 7.8125 C-4.09541306 7.81281723 -4.09541306 7.81281723 -5.5317688 7.81314087 C-20.20766067 7.84603632 -34.17779167 8.78788192 -48.5 12.1875 Z " fill="#217F99" transform="translate(314.5,10.8125)"/>
<path d="M0 0 C4.05734999 2.83232569 6.94199156 6.70348852 8.82421875 11.2734375 C9.76562865 18.21014205 9.45558575 23.9244463 5.2578125 29.65625 C1.96589638 33.36974666 -2.04841593 37.02620315 -7.06640625 37.609375 C-19.52090135 37.75419471 -19.52090135 37.75419471 -24.17578125 33.2734375 C-28.83345964 28.38518097 -31.6220495 24.00409706 -31.92578125 17.1484375 C-31.47795177 10.03800205 -28.72683641 5.82449266 -23.80078125 0.8984375 C-16.13181664 -3.84901678 -7.80354601 -4.32337913 0 0 Z " fill="#FAFCFD" transform="translate(291.17578125,72.7265625)"/>
<path d="M0 0 C4.38118201 2.48326106 7.42338864 5.84677729 9.6875 10.375 C9.7844632 12.33137514 9.81728917 14.29122931 9.8125 16.25 C9.81636719 17.82394531 9.81636719 17.82394531 9.8203125 19.4296875 C9.60991971 24.09545704 9.60991971 24.09545704 8.6875 26.375 C7.6975 26.705 6.7075 27.035 5.6875 27.375 C4.945 28.179375 4.2025 28.98375 3.4375 29.8125 C-0.68742686 33.65618185 -4.93964022 34.43900916 -10.4375 34.6875 C-14.4946817 34.36030793 -16.12098013 33.79020422 -19.3125 31.375 C-20.6428125 30.50875 -20.6428125 30.50875 -22 29.625 C-25.94196695 25.78957269 -26.40428341 21.23639107 -26.6875 15.9375 C-26.51187013 10.21001466 -24.80848927 5.74446447 -20.6171875 1.765625 C-14.21836608 -2.84567141 -7.15847175 -3.19502412 0 0 Z " fill="#F8FCFD" transform="translate(467.3125,151.625)"/>
<path d="M0 0 C3.79943795 2.73755949 5.99343313 4.8687277 7.91796875 9.1796875 C8.83608806 16.52464194 8.64617067 21.53910211 4.35546875 27.6796875 C1.43425611 31.13506474 -1.28026626 32.45431712 -5.7421875 33.19140625 C-11.0635204 33.4663316 -15.46507354 33.52411999 -19.76953125 30.1171875 C-24.86850373 24.67659651 -26.38702495 18.7316835 -26.1953125 11.40625 C-25.23900367 6.6721822 -22.40312645 3.58042152 -18.64453125 0.6796875 C-12.69748871 -2.23118259 -6.04415034 -3.01761125 0 0 Z " fill="#F9FCFC" transform="translate(185.64453125,160.3203125)"/>
<path d="M0 0 C3.81166972 3.00921294 6.81217107 6.1865132 8.375 10.875 C8.77114654 16.12394167 8.24057317 19.42842094 5.375 23.875 C0.78266241 28.01930465 -1.71450191 29.1133133 -7.875 28.9375 C-13.86828123 28.41375087 -13.86828123 28.41375087 -16.78125 26.33984375 C-20.51009903 21.74275781 -22.08591845 16.77914588 -21.625 10.875 C-19.89920059 5.59608416 -16.98722715 3.05579063 -12.625 -0.125 C-8.1946678 -1.6017774 -4.34751363 -1.86322013 0 0 Z " fill="#F6FAFB" transform="translate(328.625,326.125)"/>
<path d="M0 0 C0 0.66 0 1.32 0 2 C0.8971875 2.4021875 0.8971875 2.4021875 1.8125 2.8125 C4.73959515 4.40149451 6.5094781 6.01895619 8 9 C8.40848526 13.90182314 8.47608535 16.11130735 6.125 20.5 C5.42375 21.325 4.7225 22.15 4 23 C3.34 23 2.68 23 2 23 C2 23.66 2 24.32 2 25 C-2.00873778 27.00436889 -6.66581341 26.76916551 -11 26 C-14.26319251 23.59355301 -16.20536602 20.58926795 -18 17 C-18.40331428 11.75691431 -17.86051133 8.43872447 -15 4 C-10.67516785 -0.98010975 -6.13086953 -0.42856564 0 0 Z " fill="#F5FAFB" transform="translate(351,246)"/>
<path d="M0 0 C3.25 1.8125 3.25 1.8125 6 4 C6.54785156 4.433125 7.09570312 4.86625 7.66015625 5.3125 C9.51808312 7.65251285 9.30222561 9.24287591 9.1875 12.1875 C9.16042969 13.08855469 9.13335937 13.98960937 9.10546875 14.91796875 C9.07066406 15.60503906 9.03585938 16.29210937 9 17 C8.34 17 7.68 17 7 17 C6.7525 17.598125 6.505 18.19625 6.25 18.8125 C4.78201644 21.38147124 3.49718364 22.42721241 1 24 C-3.18840853 24.953796 -7.24770717 25.07621134 -10.984375 22.78125 C-14.27222298 19.46208918 -15.40213073 16.52739608 -15.625 11.875 C-15.34347055 7.46437192 -14.38628126 5.01002779 -11 2 C-7.51335549 -0.52481154 -4.20248882 -0.43474022 0 0 Z " fill="#F2F8F9" transform="translate(160,290)"/>
<path d="M0 0 C4.01478735 0.10458201 4.97869454 0.34130785 8.3125 2.875 C10.71598858 6.44614084 10.70783968 10.03235819 10.65625 14.23046875 C10.10230872 16.91246777 9.35649409 17.86793827 7.1875 19.5 C6.5275 19.5 5.8675 19.5 5.1875 19.5 C5.1875 20.16 5.1875 20.82 5.1875 21.5 C-3.85359589 21.80136986 -3.85359589 21.80136986 -6.8125 19.5 C-9.9654475 15.55881562 -10.34505319 12.47049643 -9.8125 7.5 C-7.39294521 2.55091066 -5.60285784 0.20160208 0 0 Z " fill="#F2F9FA" transform="translate(476.8125,306.5)"/>
<path d="M0 0 C2.87029869 1.79393668 4.49131638 2.98263276 6 6 C6.49170132 10.91701315 6.48320696 13.09801367 4.125 17.5 C1.65261326 20.07128221 -0.48217516 20.51897867 -4 20.75 C-7.90848027 20.48749013 -8.90345728 20.07530332 -12.125 17.5625 C-14.33385504 14.23343991 -14.73230168 11.06628447 -14.47265625 7.125 C-14 5 -14 5 -12.0625 1.9375 C-7.95859581 -0.65884755 -4.73725096 -0.95259938 0 0 Z " fill="#F6FAFB" transform="translate(214,115)"/>
<path d="M0 0 C2.8100346 1.79363911 4.50940468 3.01880935 6 6 C6.40417552 8.96395382 6.56382171 11.08904926 4.953125 13.69140625 C1.9796722 17.32076776 0.33073729 18.82424225 -4.3125 19.4375 C-8 19 -8 19 -10.9375 16.5625 C-13.33712843 13.20620907 -13.73716988 10.12544043 -13.4765625 6.05859375 C-13 4 -13 4 -11 1.4375 C-7.17206504 -0.39671884 -4.17005097 -0.85928323 0 0 Z " fill="#F2F9FB" transform="translate(363,81)"/>
<path d="M0 0 C2.5625 2.125 2.5625 2.125 4 5 C4.07836758 9.38858425 3.43828382 11.41144744 0.8125 14.9375 C-2 17 -2 17 -5 17.625 C-9.10085314 16.7706556 -10.51240343 15.34048682 -13 12 C-14.0625 8.5 -14.0625 8.5 -14 5 C-10.23785565 -0.96753932 -6.73116103 -1.91180905 0 0 Z " fill="#F0F7FA" transform="translate(342,133)"/>
<path d="M0 0 C0.33 0 0.66 0 1 0 C1.0272415 1.41655793 1.04650467 2.83327045 1.0625 4.25 C1.07410156 5.03890625 1.08570312 5.8278125 1.09765625 6.640625 C1 9 1 9 0.50099182 10.769104 C-0.12968464 13.57748039 -0.1194741 16.17453528 -0.11352539 19.05371094 C-0.11344986 20.27467468 -0.11337433 21.49563843 -0.11329651 22.75360107 C-0.10813522 24.06725647 -0.10297394 25.38091187 -0.09765625 26.734375 C-0.09579021 28.0962926 -0.09436718 29.45821088 -0.09336853 30.82012939 C-0.08955803 34.39741889 -0.07974032 37.97466752 -0.06866455 41.55194092 C-0.05841884 45.20519457 -0.05386415 48.85845486 -0.04882812 52.51171875 C-0.03811669 59.67449776 -0.02105794 66.83724314 0 74 C-3.3266553 67.77284798 -3.15815476 61.09880743 -3.16796875 54.19921875 C-3.17129715 53.36397171 -3.17462555 52.52872467 -3.17805481 51.66816711 C-3.18309789 49.90240016 -3.18546395 48.13662376 -3.18530273 46.37084961 C-3.18746242 43.73339021 -3.20557135 41.09636846 -3.22460938 38.45898438 C-3.26709357 25.56329176 -2.74798344 12.64628465 0 0 Z " fill="#BCD8E0" transform="translate(79,217)"/>
<path d="M0 0 C0.66 0.33 1.32 0.66 2 1 C-7.57 10.57 -17.14 20.14 -27 30 C-27.66 29.67 -28.32 29.34 -29 29 C-24.42070677 23.52718614 -19.53512829 18.42499396 -14.5 13.375 C-13.87150146 12.74198975 -13.24300293 12.10897949 -12.59545898 11.45678711 C-8.5541837 7.42812931 -4.37463093 3.66431715 0 0 Z " fill="#D6E7EC" transform="translate(163,72)"/>
<path d="M0 0 C0.66 0.33 1.32 0.66 2 1 C-6.91 9.91 -15.82 18.82 -25 28 C-25.66 27.67 -26.32 27.34 -27 27 C-19.62097168 18.66443097 -12.1248198 10.69257473 -3.6640625 3.4453125 C-2.39833536 2.34597202 -1.1854566 1.1854566 0 0 Z " fill="#4292A8" transform="translate(156,68)"/>
<path d="M0 0 C-1.66463038 4.28642324 -4.79075837 7.08617217 -8 10.25 C-8.5465625 10.80429687 -9.093125 11.35859375 -9.65625 11.9296875 C-13.7466133 16 -13.7466133 16 -16 16 C-14.33536962 11.71357676 -11.20924163 8.91382783 -8 5.75 C-7.4534375 5.19570313 -6.906875 4.64140625 -6.34375 4.0703125 C-2.2533867 0 -2.2533867 0 0 0 Z " fill="#3DA7C4" transform="translate(475,257)"/>
<path d="M0 0 C-1.57973684 3.8288537 -4.02060457 6.28773759 -6.9375 9.1875 C-8.25041016 10.50814453 -8.25041016 10.50814453 -9.58984375 11.85546875 C-12 14 -12 14 -15 15 C-13.387672 10.96918 -10.53765404 8.24055863 -7.5 5.25 C-7.00113281 4.74339844 -6.50226563 4.23679687 -5.98828125 3.71484375 C-2.25341139 0 -2.25341139 0 0 0 Z " fill="#3A96AE" transform="translate(280,304)"/>
<path d="M0 0 C0.33 0 0.66 0 1 0 C2.40454548 6.11980533 3.23268915 11.71739294 3 18 C2.01 17.67 1.02 17.34 0 17 C0 11.39 0 5.78 0 0 Z " fill="#62B0C5" transform="translate(399,372)"/>
<path d="M0 0 C-1.44077046 3.36179774 -3.24750021 5.59156268 -6 8 C-6.66 8 -7.32 8 -8 8 C-6.48291727 4.46014029 -4.24676932 0 0 0 Z " fill="#D7E9EE" transform="translate(168,234)"/>
<path d="M0 0 C-1.5830577 4.2742558 -4.50568404 6.26531794 -8 9 C-6.68994234 5.06982701 -4.75047804 0 0 0 Z " fill="#D2E9EF" transform="translate(325,180)"/>
<path d="M0 0 C0.66 0.33 1.32 0.66 2 1 C0.88121617 2.17262904 -0.24523051 3.33795138 -1.375 4.5 C-2.00148438 5.1496875 -2.62796875 5.799375 -3.2734375 6.46875 C-5 8 -5 8 -7 8 C-5.50902342 4.2047869 -3.24299151 2.38957269 0 0 Z " fill="#D0EAF1" transform="translate(385,112)"/>
<path d="M0 0 C0.66 0.33 1.32 0.66 2 1 C0.88121617 2.17262904 -0.24523051 3.33795138 -1.375 4.5 C-2.00148438 5.1496875 -2.62796875 5.799375 -3.2734375 6.46875 C-5 8 -5 8 -7 8 C-5.50902342 4.2047869 -3.24299151 2.38957269 0 0 Z " fill="#D4EAF0" transform="translate(270,72)"/>
<path d="M0 0 C-1.49097658 3.7952131 -3.75700849 5.61042731 -7 8 C-7 5 -7 5 -4.625 2.3125 C-2 0 -2 0 0 0 Z " fill="#CCE3E9" transform="translate(280,352)"/>
<path d="M0 0 C-1.28519565 2.86697492 -2.57129254 4.97607712 -5 7 C-5.66 7 -6.32 7 -7 7 C-3.86206897 0 -3.86206897 0 0 0 Z " fill="#CCE4EB" transform="translate(316,327)"/>
<path d="M0 0 C-1.28519565 2.86697492 -2.57129254 4.97607712 -5 7 C-5.66 7 -6.32 7 -7 7 C-3.86206897 0 -3.86206897 0 0 0 Z " fill="#D2E8EE" transform="translate(360,290)"/>
<path d="M0 0 C-1.49097658 3.7952131 -3.75700849 5.61042731 -7 8 C-4.18918919 0 -4.18918919 0 0 0 Z " fill="#CFE7EE" transform="translate(341,247)"/>
<path d="M0 0 C1.485 0.99 1.485 0.99 3 2 C3.29296875 4.1640625 3.29296875 4.1640625 3.1875 6.625 C3.16042969 7.44226563 3.13335938 8.25953125 3.10546875 9.1015625 C3.07066406 9.72804687 3.03585937 10.35453125 3 11 C1.0210244 7.36383344 0.4748935 4.11574371 0 0 Z " fill="#78B1C1" transform="translate(545,196)"/>
<path d="M0 0 C-1.45255699 3.82946843 -3.42895561 5.12050295 -7 7 C-3.86206897 0 -3.86206897 0 0 0 Z " fill="#CEE3E8" transform="translate(167,328)"/>
</svg>
